# xmcd
#
# Track frame offsets:
#	150
#	18107
#	37739
#	48766
#	65740
#	76980
#	91082
#	108634
#	121636
#	138935
#	153500
#	166724
#	180216
#	197660
#	210150
#	226737
#	241694
#	256714
#	272546
#	289068
#
# Disc length: 4045 seconds
#
# Revision: 0
# Processed by: cddbd v1.5.1PL0 Copyright (c) Steve Scherf et al.
# Submitted via: dBpowerAMP V4.0
#
DISCID=e40fcb14
DTITLE=Alan Jackson - Greatest Hits
DYEAR=1900
DGENRE=
TTITLE0=Chattahoochee 
TTITLE1=Gone Country 
TTITLE2=She's Got The Rhythm (And I Got The Blues) 
TTITLE3=Midnight In Montgomery 
TTITLE4=Tall, Tall Trees 
TTITLE5=Chasin' That Neon Rainbow 
TTITLE6=I'll Try 
TTITLE7=Don't Rock The Jukebox 
TTITLE8=Livin' On Love 
TTITLE9=Summertime Blues 
TTITLE10=Love's Got A Hold On You 
TTITLE11=Who Says You Can't Have It All 
TTITLE12=Home
TTITLE13=Wanted
TTITLE14=I Don't Even Know Your Name
TTITLE15=Dallas
TTITLE16=Here in the Real World
TTITLE17=Someday
TTITLE18=Mercury Blues
TTITLE19=I'd Love You All Over Again 
EXTD=Alan Jackson - Greatest Hits
EXTT0=
EXTT1=
EXTT2=
EXTT3=
EXTT4=
EXTT5=
EXTT6=
EXTT7=
EXTT8=
EXTT9=
EXTT10=
EXTT11=
EXTT12=
EXTT13=
EXTT14=
EXTT15=
EXTT16=
EXTT17=
EXTT18=
EXTT19=
PLAYORDER=
